<svg xmlns="http://www.w3.org/2000/svg" viewBox="0 0 512 512">
  <defs>
    <linearGradient id="bg" x1="0" y1="0" x2="1" y2="1">
      <stop offset="0%" stop-color="#2E4F4F"/>
      <stop offset="100%" stop-color="#2C3333"/>
    </linearGradient>
    <linearGradient id="fg" x1="0" y1="0" x2="0" y2="1">
      <stop offset="0%" stop-color="#CBE4DE"/>
      <stop offset="100%" stop-color="#0E8388"/>
    </linearGradient>
    <filter id="shadow" x="-10%" y="-10%" width="120%" height="120%">
      <feDropShadow dx="0" dy="4" stdDeviation="8" flood-color="#000" flood-opacity="0.25"/>
    </filter>
  </defs>
  <rect width="512" height="512" rx="96" fill="url(#bg)"/>
  <!-- Subtle checkerboard -->
  <g opacity="0.04">
    <rect x="0" y="0" width="128" height="128" fill="#fff"/>
    <rect x="256" y="0" width="128" height="128" fill="#fff"/>
    <rect x="128" y="128" width="128" height="128" fill="#fff"/>
    <rect x="384" y="128" width="128" height="128" fill="#fff"/>
    <rect x="0" y="256" width="128" height="128" fill="#fff"/>
    <rect x="256" y="256" width="128" height="128" fill="#fff"/>
    <rect x="128" y="384" width="128" height="128" fill="#fff"/>
    <rect x="384" y="384" width="128" height="128" fill="#fff"/>
  </g>
  <g transform="translate(120 40) scale(2.61)" filter="url(#shadow)">
    <path fill="url(#fg)" fill-rule="evenodd" d="M35.73,32.57a20.45,20.45,0,1,1,32.91,0Zm35.06,3.88a7.1,7.1,0,0,1,6.17,7h0a7.11,7.11,0,0,1-6.61,7.06H34a7.1,7.1,0,0,1-6.6-7.06h0a7.1,7.1,0,0,1,6.17-7ZM63.33,54.4c.91,14.57,6,26.07,18.75,31.85V91.6H22.3V86.25c12-3.8,17.68-15,18.73-31.85ZM82.39,95.45a14.39,14.39,0,0,1,12.67,14.23v.22H9.32v-.22A14.39,14.39,0,0,1,22,95.45l.31,0H82.08l.31,0ZM94.9,113.77a12,12,0,0,1,9.48,9.11H0a12,12,0,0,1,9.47-9.11Z"/>
  </g>
</svg>
