<svg xmlns="http://www.w3.org/2000/svg" viewBox="0 0 1200 630">
  <defs>
    <linearGradient id="bg" x1="0" y1="0" x2="1" y2="1">
      <stop offset="0%" stop-color="#2C3333"/>
      <stop offset="100%" stop-color="#2E4F4F"/>
    </linearGradient>
    <linearGradient id="pawnFill" x1="0" y1="0" x2="0" y2="1">
      <stop offset="0%" stop-color="#CBE4DE"/>
      <stop offset="100%" stop-color="#0E8388"/>
    </linearGradient>
    <filter id="glow">
      <feGaussianBlur stdDeviation="20" result="blur"/>
      <feMerge><feMergeNode in="blur"/><feMergeNode in="SourceGraphic"/></feMerge>
    </filter>
  </defs>
  <rect width="1200" height="630" fill="url(#bg)"/>
  <!-- Checkerboard pattern -->
  <g opacity="0.035">
    <rect x="0" y="0" width="150" height="157.5" fill="#fff"/><rect x="300" y="0" width="150" height="157.5" fill="#fff"/><rect x="600" y="0" width="150" height="157.5" fill="#fff"/><rect x="900" y="0" width="150" height="157.5" fill="#fff"/>
    <rect x="150" y="157.5" width="150" height="157.5" fill="#fff"/><rect x="450" y="157.5" width="150" height="157.5" fill="#fff"/><rect x="750" y="157.5" width="150" height="157.5" fill="#fff"/><rect x="1050" y="157.5" width="150" height="157.5" fill="#fff"/>
    <rect x="0" y="315" width="150" height="157.5" fill="#fff"/><rect x="300" y="315" width="150" height="157.5" fill="#fff"/><rect x="600" y="315" width="150" height="157.5" fill="#fff"/><rect x="900" y="315" width="150" height="157.5" fill="#fff"/>
    <rect x="150" y="472.5" width="150" height="157.5" fill="#fff"/><rect x="450" y="472.5" width="150" height="157.5" fill="#fff"/><rect x="750" y="472.5" width="150" height="157.5" fill="#fff"/><rect x="1050" y="472.5" width="150" height="157.5" fill="#fff"/>
  </g>
  <!-- Large background pawn -->
  <g transform="translate(850 80) scale(4)" opacity="0.08">
    <path fill="#CBE4DE" fill-rule="evenodd" d="M35.73,32.57a20.45,20.45,0,1,1,32.91,0Zm35.06,3.88a7.1,7.1,0,0,1,6.17,7h0a7.11,7.11,0,0,1-6.61,7.06H34a7.1,7.1,0,0,1-6.6-7.06h0a7.1,7.1,0,0,1,6.17-7ZM63.33,54.4c.91,14.57,6,26.07,18.75,31.85V91.6H22.3V86.25c12-3.8,17.68-15,18.73-31.85ZM82.39,95.45a14.39,14.39,0,0,1,12.67,14.23v.22H9.32v-.22A14.39,14.39,0,0,1,22,95.45l.31,0H82.08l.31,0ZM94.9,113.77a12,12,0,0,1,9.48,9.11H0a12,12,0,0,1,9.47-9.11Z"/>
  </g>
  <!-- Foreground pawn -->
  <g transform="translate(82 120) scale(3)" filter="url(#glow)">
    <path fill="url(#pawnFill)" fill-rule="evenodd" d="M35.73,32.57a20.45,20.45,0,1,1,32.91,0Zm35.06,3.88a7.1,7.1,0,0,1,6.17,7h0a7.11,7.11,0,0,1-6.61,7.06H34a7.1,7.1,0,0,1-6.6-7.06h0a7.1,7.1,0,0,1,6.17-7ZM63.33,54.4c.91,14.57,6,26.07,18.75,31.85V91.6H22.3V86.25c12-3.8,17.68-15,18.73-31.85ZM82.39,95.45a14.39,14.39,0,0,1,12.67,14.23v.22H9.32v-.22A14.39,14.39,0,0,1,22,95.45l.31,0H82.08l.31,0ZM94.9,113.77a12,12,0,0,1,9.48,9.11H0a12,12,0,0,1,9.47-9.11Z"/>
  </g>
  <!-- Title -->
  <text x="440" y="250" font-family="system-ui,-apple-system,'Segoe UI',sans-serif" font-size="84" font-weight="800" fill="#CBE4DE" letter-spacing="-2">Chess</text>
  <text x="440" y="345" font-family="system-ui,-apple-system,'Segoe UI',sans-serif" font-size="84" font-weight="300" fill="#0E8388" letter-spacing="-2">Trainer</text>
  <!-- Tagline -->
  <text x="442" y="402" font-family="system-ui,-apple-system,'Segoe UI',sans-serif" font-size="28" font-weight="400" fill="#CBE4DE" opacity="0.65" letter-spacing="3">MASTER YOUR OPENINGS</text>
  <line x1="440" y1="420" x2="750" y2="420" stroke="#0E8388" stroke-width="2" opacity="0.4"/>
  <text x="442" y="460" font-family="system-ui,-apple-system,'Segoe UI',sans-serif" font-size="22" fill="#CBE4DE" opacity="0.5">Import PGN  ·  Practice Moves  ·  Track Progress</text>
</svg>
